<!-- icon666.com - MILLIONS OF FREE VECTOR ICONS --><svg id="Layer_1" viewBox="0 0 512 512" xmlns="http://www.w3.org/2000/svg" data-name="Layer 1"><path d="m256 0c141.385 0 256 114.615 256 256s-114.615 256-256 256-256-114.615-256-256 114.615-256 256-256zm-73.888 93.5h-75.282a13.33 13.33 0 0 0 -13.33 13.328v75.287a13.329 13.329 0 0 0 26.657 0v-61.954h61.954a13.331 13.331 0 1 0 0-26.662zm236.388 13.328a13.333 13.333 0 0 0 -13.329-13.328h-75.288a13.331 13.331 0 1 0 0 26.662h61.959v61.954a13.329 13.329 0 0 0 26.657 0v-75.288zm0 223.053a13.329 13.329 0 1 0 -26.657 0v61.959h-61.96a13.331 13.331 0 1 0 0 26.661h75.288a13.333 13.333 0 0 0 13.329-13.333zm-298.341 0a13.329 13.329 0 1 0 -26.657 0v75.287a13.33 13.33 0 0 0 13.328 13.332h75.282a13.331 13.331 0 1 0 0-26.661h-61.954v-61.958zm135.841-42.652a31.229 31.229 0 1 0 -31.235-31.229 31.264 31.264 0 0 0 31.235 31.229zm0-89.119a57.891 57.891 0 1 0 57.893 57.89 57.962 57.962 0 0 0 -57.893-57.89zm0 127.436a161.332 161.332 0 0 0 133.221-69.546 162.376 162.376 0 0 0 -266.446 0 161.329 161.329 0 0 0 133.225 69.546zm91.791-141.967a189 189 0 0 0 -252.276 65.374 13.323 13.323 0 0 0 0 14.086 189.015 189.015 0 0 0 320.97 0 13.34 13.34 0 0 0 0-14.086 189.455 189.455 0 0 0 -68.692-65.374z" fill="#0291f7" fill-rule="evenodd" style="fill: rgb(255, 255, 255);"></path></svg>